<svg id="Layer_1" data-name="Layer 1" xmlns="http://www.w3.org/2000/svg" viewBox="0 0 48 48"><defs><style>.cls-1{fill:#ffbf8e;}.cls-2{fill:#ffd0b0;}.cls-3{fill:#425b72;}.cls-4{fill:#e79165;}.cls-5{fill:#dd7b50;}.cls-6{fill:#2c435e;}</style></defs><title>hedgehog, animal, nature, wildlife, forest</title><path class="cls-1" d="M12.25,35.75h3.92a0,0,0,0,1,0,0v4.9a2,2,0,0,1-2,2h0a2,2,0,0,1-2-2v-4.9A0,0,0,0,1,12.25,35.75Z"/><path class="cls-1" d="M31.83,35.75h3.92a0,0,0,0,1,0,0v4.9a2,2,0,0,1-2,2h0a2,2,0,0,1-2-2v-4.9A0,0,0,0,1,31.83,35.75Z"/><path class="cls-2" d="M46.52,27.92a9.8,9.8,0,0,1-9.79,9.79H7.35V20.08h33.3a8.12,8.12,0,0,0,5.57,7.74Z"/><path class="cls-2" d="M8.33,35.75h3.92a0,0,0,0,1,0,0v4.9a2,2,0,0,1-2,2h0a2,2,0,0,1-2-2v-4.9a0,0,0,0,1,0,0Z"/><circle class="cls-3" cx="45.54" cy="27.92" r="1.96"/><path class="cls-4" d="M41.62,20.08c0,3.92-8.81,1-8.81,5.88,0,5.17-5.87,4.89-9.79,4.89-9.79,0-9.79,6.86-18.6,6.86H.5C.5,26.94,2.46,25,4.42,22A13.53,13.53,0,0,0,.5,25c0-6.86,6.85-10.77,6.85-10.77a13.08,13.08,0,0,0-4.89,1C8.33,8.33,18.12,9.31,18.12,9.31a40.54,40.54,0,0,0-4.89-2c9.79-1,14.69,1,14.69,1A18.4,18.4,0,0,0,24,5.4c7.43,0,15.7,3.93,17.33,11.79A13.49,13.49,0,0,1,41.62,20.08Z"/><path class="cls-5" d="M41.62,20.08c0,3.92-8.81,1-8.81,5.88,0,5.17-5.87,4.89-9.79,4.89-9.79,0-9.79,6.86-18.6,6.86H.5c4.9-2,5.32-7.49,6.85-9.79a13.78,13.78,0,0,0-3.91,2.93c0-6.85,6.85-10.77,6.85-10.77a13,13,0,0,0-4.89,1c5.87-6.85,15.66-5.87,15.66-5.87a41.44,41.44,0,0,0-4.89-2c9.79-1,14.68,1,14.68,1a18.1,18.1,0,0,0-3.91-2.94c5.27,0,10.94,2,14.39,5.92A13.49,13.49,0,0,1,41.62,20.08Z"/><circle class="cls-2" cx="32.32" cy="24.49" r="2.45"/><path class="cls-2" d="M27.92,35.75h3.92a0,0,0,0,1,0,0v4.9a2,2,0,0,1-2,2h0a2,2,0,0,1-2-2v-4.9A0,0,0,0,1,27.92,35.75Z"/><circle class="cls-6" cx="38.69" cy="26.94" r="0.98"/></svg>